<svg xmlns="http://www.w3.org/2000/svg" viewBox="0 0 920 360" role="img" aria-label="Audio file complex data chain variant 3">
  <defs>
    <marker id="arrow-purple" markerWidth="8" markerHeight="6" refX="8" refY="3" orient="auto"><polygon points="0 0, 8 3, 0 6" fill="#7E60B1"/></marker>
    <marker id="arrow-teal" markerWidth="8" markerHeight="6" refX="8" refY="3" orient="auto"><polygon points="0 0, 8 3, 0 6" fill="#3F6E6E"/></marker>
    <marker id="arrow-grey" markerWidth="8" markerHeight="6" refX="8" refY="3" orient="auto"><polygon points="0 0, 8 3, 0 6" fill="#CCCCCC"/></marker>
  </defs>
  <text x="460" y="28" font-family="Lato, sans-serif" font-size="16" font-weight="bold" fill="#CCCCCC" text-anchor="middle">Audio File Complex Data Chain</text>
  <rect x="12" y="48" width="250" height="250" fill="#7E60B1" fill-opacity="0.05" stroke="#7E60B1" stroke-opacity="0.22" rx="6"/>
  <rect x="335" y="48" width="250" height="250" fill="#90FFB1" fill-opacity="0.05" stroke="#90FFB1" stroke-opacity="0.22" rx="6"/>
  <rect x="658" y="48" width="250" height="250" fill="#3F6E6E" fill-opacity="0.05" stroke="#3F6E6E" stroke-opacity="0.22" rx="6"/>
  <text x="137" y="38" font-family="Lato, sans-serif" font-size="12" font-weight="bold" fill="#7E60B1" text-anchor="middle">OWNER</text>
  <text x="460" y="38" font-family="Lato, sans-serif" font-size="12" font-weight="bold" fill="#90FFB1" text-anchor="middle">AUDIOFILE SLOTS</text>
  <text x="783" y="38" font-family="Lato, sans-serif" font-size="12" font-weight="bold" fill="#3F6E6E" text-anchor="middle">WAVEFORM UI</text>
  <rect x="37" y="126" width="200" height="64" fill="#161b22" stroke="rgba(0,0,0,0.5)" rx="6"/>
  <text x="137" y="153" font-family="Consolas, 'Courier New', monospace" font-size="14" fill="#CCCCCC" text-anchor="middle">AudioSampleProcessor</text>
  <rect x="378" y="98" width="164" height="50" fill="#161b22" stroke="#90FFB1" stroke-width="2" rx="6"/>
  <rect x="378" y="156" width="164" height="50" fill="#161b22" stroke="#90FFB1" stroke-width="2" rx="6"/>
  <rect x="378" y="214" width="164" height="50" fill="#161b22" stroke="#90FFB1" stroke-width="2" rx="6"/>
  <text x="460" y="128" font-family="Consolas, 'Courier New', monospace" font-size="13" fill="#90FFB1" text-anchor="middle">slot 0</text>
  <text x="460" y="186" font-family="Consolas, 'Courier New', monospace" font-size="13" fill="#90FFB1" text-anchor="middle">slot 1</text>
  <text x="460" y="244" font-family="Consolas, 'Courier New', monospace" font-size="13" fill="#90FFB1" text-anchor="middle">slot n</text>
  <text x="460" y="78" font-family="Consolas, 'Courier New', monospace" font-size="12" fill="#90FFB1" text-anchor="middle">AudioFile</text>
  <rect x="683" y="126" width="200" height="64" fill="#161b22" stroke="rgba(0,0,0,0.5)" rx="6"/>
  <text x="783" y="153" font-family="Consolas, 'Courier New', monospace" font-size="14" fill="#CCCCCC" text-anchor="middle">ScriptAudioWaveform</text>
  <path d="M 237 158 L 304 158 L 304 123 L 378 123" fill="none" stroke="#7E60B1" stroke-width="1.8" marker-end="url(#arrow-purple)"/>
  <path d="M 237 158 L 294 158 L 294 181 L 378 181" fill="none" stroke="#7E60B1" stroke-width="1.8" marker-end="url(#arrow-purple)"/>
  <path d="M 237 158 L 304 158 L 304 239 L 378 239" fill="none" stroke="#7E60B1" stroke-width="1.8" marker-end="url(#arrow-purple)"/>
  <path d="M 783 190 L 783 248 L 137 248 L 137 190" fill="none" stroke="#CCCCCC" stroke-width="1.5" stroke-dasharray="4,4" marker-end="url(#arrow-grey)"/>
  <path d="M 783 190 L 783 283 L 560 283 L 560 239 L 542 239" fill="none" stroke="#3F6E6E" stroke-width="1.8" marker-end="url(#arrow-teal)"/>
  <rect x="307" y="64" width="106" height="18" fill="#161b22" fill-opacity="0.88" rx="3"/>
  <text x="360" y="77" font-family="Consolas, 'Courier New', monospace" font-size="11" fill="#7E60B1" text-anchor="middle">getAudioFile(i)</text>
  <rect x="95" y="212" width="84" height="18" fill="#161b22" fill-opacity="0.88" rx="3"/>
  <text x="137" y="225" font-family="Consolas, 'Courier New', monospace" font-size="11" fill="#CCCCCC" text-anchor="middle">processorId</text>
  <rect x="565" y="292" width="86" height="18" fill="#161b22" fill-opacity="0.88" rx="3"/>
  <text x="608" y="305" font-family="Consolas, 'Courier New', monospace" font-size="11" fill="#3F6E6E" text-anchor="middle">sampleIndex</text>
  <text x="554" y="128" font-family="Lato, sans-serif" font-size="13" font-weight="bold" fill="#90FFB1">1</text>
  <text x="554" y="186" font-family="Lato, sans-serif" font-size="13" font-weight="bold" fill="#90FFB1">2</text>
  <text x="554" y="244" font-family="Lato, sans-serif" font-size="13" font-weight="bold" fill="#90FFB1">N</text>
</svg>
