<svg xmlns="http://www.w3.org/2000/svg" viewBox="0 0 840 340" role="img" aria-label="Slider pack complex data chain">
  <defs>
    <marker id="arr" markerWidth="8" markerHeight="6" refX="8" refY="3" orient="auto"><polygon points="0 0, 8 3, 0 6" fill="#CCCCCC"/></marker>
    <marker id="arr-g" markerWidth="8" markerHeight="6" refX="8" refY="3" orient="auto"><polygon points="0 0, 8 3, 0 6" fill="#90FFB1"/></marker>
    <marker id="arr-t" markerWidth="8" markerHeight="6" refX="8" refY="3" orient="auto"><polygon points="0 0, 8 3, 0 6" fill="#3F6E6E"/></marker>
  </defs>

  <rect x="30" y="130" width="200" height="60" fill="#161b22" stroke="#7E60B1" stroke-width="2" rx="6"/>
  <text x="130" y="165" font-family="Consolas, monospace" font-size="13" fill="#CCCCCC" text-anchor="middle">SliderPackProcessor</text>

  <rect x="340" y="55" width="160" height="44" fill="#161b22" stroke="#90FFB1" stroke-opacity="0.5" stroke-width="1.5" rx="6"/>
  <text x="420" y="82" font-family="Consolas, monospace" font-size="13" fill="#808080" text-anchor="middle">SliderPackData[0]</text>

  <rect x="340" y="120" width="160" height="44" fill="#161b22" stroke="#90FFB1" stroke-width="2.5" rx="6"/>
  <text x="420" y="147" font-family="Consolas, monospace" font-size="13" fill="#90FFB1" text-anchor="middle">SliderPackData[1]</text>

  <rect x="340" y="185" width="160" height="44" fill="#161b22" stroke="#90FFB1" stroke-opacity="0.5" stroke-width="1.5" rx="6"/>
  <text x="420" y="212" font-family="Consolas, monospace" font-size="13" fill="#808080" text-anchor="middle">SliderPackData[2]</text>

  <rect x="340" y="250" width="160" height="44" fill="#161b22" stroke="#90FFB1" stroke-opacity="0.3" stroke-width="1.5" rx="6"/>
  <text x="420" y="277" font-family="Lato, sans-serif" font-size="13" fill="#808080" text-anchor="middle">...</text>

  <path d="M 230 148 L 280 148 L 280 52 L 340 52" fill="none" stroke="#90FFB1" stroke-width="1.2" stroke-opacity="0.5" marker-end="url(#arr-g)"/>
  <path d="M 230 156 L 275 156 L 275 142 L 340 142" fill="none" stroke="#90FFB1" stroke-width="2" marker-end="url(#arr-g)"/>
  <path d="M 230 164 L 275 164 L 275 207 L 340 207" fill="none" stroke="#90FFB1" stroke-width="1.2" stroke-opacity="0.5" marker-end="url(#arr-g)"/>
  <path d="M 230 172 L 280 172 L 280 272 L 340 272" fill="none" stroke="#90FFB1" stroke-width="1.2" stroke-opacity="0.5" marker-end="url(#arr-g)"/>

  <rect x="610" y="130" width="200" height="60" fill="#161b22" stroke="#3F6E6E" stroke-width="2" rx="6"/>
  <text x="710" y="165" font-family="Consolas, monospace" font-size="13" fill="#CCCCCC" text-anchor="middle">ScriptSliderPack</text>

  <path d="M 610 160 L 560 160 L 560 142 L 500 142" fill="none" stroke="#3F6E6E" stroke-width="2.2" marker-end="url(#arr-t)"/>
  <rect x="513" y="140" width="99" height="18" fill="#161b22" fill-opacity="0.88" rx="3"/>
  <text x="562" y="153" font-family="Consolas, monospace" font-size="11" fill="#3F6E6E" text-anchor="middle">SliderPackIndex</text>

  <path d="M 710 190 L 710 320 L 130 320 L 130 190" fill="none" stroke="#CCCCCC" stroke-width="1.5" stroke-dasharray="5,3" marker-end="url(#arr)"/>
  <rect x="370" y="310" width="86" height="18" fill="#161b22" fill-opacity="0.88" rx="3"/>
  <text x="413" y="323" font-family="Consolas, monospace" font-size="11" fill="#CCCCCC" text-anchor="middle">processorId</text>
</svg>
